<?xml version="1.0" encoding="UTF-8" standalone="no"?>
<!DOCTYPE svg PUBLIC "-//W3C//DTD SVG 1.1//EN" "http://www.w3.org/Graphics/SVG/1.1/DTD/svg11.dtd">
<svg width="100%" height="100%" viewBox="0 0 1080 1080" version="1.1" xmlns="http://www.w3.org/2000/svg" xmlns:xlink="http://www.w3.org/1999/xlink" xml:space="preserve" xmlns:serif="http://www.serif.com/" style="fill-rule:evenodd;clip-rule:evenodd;stroke-linejoin:round;stroke-miterlimit:2;">
    <g id="FPSCore_Gear" transform="matrix(0.852599,0,0,0.838782,79.5965,87.0575)">
        <g transform="matrix(1.22597,0,0,1.22597,-199.871,-156.963)">
            <path d="M642.234,169.877C616.472,167.374 590.528,167.374 564.766,169.877L552.007,231.992C527.315,235.77 503.113,242.255 479.84,251.329L437.733,203.916C414.171,214.629 391.703,227.601 370.644,242.65L390.652,302.822C371.157,318.44 353.44,336.157 337.822,355.652L277.65,335.644C262.601,356.703 249.629,379.171 238.916,402.733L286.329,444.84C277.255,468.113 270.77,492.315 266.992,517.007L204.877,529.766C202.374,555.528 202.374,581.472 204.877,607.234L266.992,619.993C270.77,644.685 277.255,668.887 286.329,692.16L238.916,734.267C249.629,757.829 262.601,780.297 277.65,801.356L337.822,781.348C353.44,800.843 371.157,818.56 390.652,834.178L370.644,894.35C391.703,909.399 414.171,922.371 437.733,933.084L479.84,885.671C503.113,894.745 527.315,901.23 552.007,905.008L564.766,967.123C590.528,969.626 616.472,969.626 642.234,967.123L654.993,905.008C679.685,901.23 703.887,894.745 727.16,885.671L769.267,933.084C792.829,922.371 815.297,909.399 836.356,894.35L816.348,834.178C835.843,818.56 853.56,800.843 869.178,781.348L929.35,801.356C944.399,780.297 957.371,757.829 968.084,734.267L920.671,692.16C929.745,668.887 936.23,644.685 940.008,619.993L1002.12,607.234C1004.63,581.472 1004.63,555.528 1002.12,529.766L940.008,517.007C936.23,492.315 929.745,468.113 920.671,444.84L968.084,402.733C957.371,379.171 944.399,356.703 929.35,335.644L869.178,355.652C853.56,336.157 835.843,318.44 816.348,302.822L836.356,242.65C815.297,227.601 792.829,214.629 769.267,203.916L727.16,251.329C703.887,242.255 679.685,235.77 654.993,231.992L642.234,169.877ZM603.5,488.4C647.708,488.4 683.6,524.292 683.6,568.5C683.6,612.708 647.708,648.6 603.5,648.6C559.292,648.6 523.4,612.708 523.4,568.5C523.4,524.292 559.292,488.4 603.5,488.4Z" style="fill:rgb(47,47,47);"/>
        </g>
        <g transform="matrix(1.11124,0,0,1.11124,-83.4045,-45.6224)">
            <circle cx="561" cy="527" r="374" style="fill:rgb(47,47,47);"/>
        </g>
        <g transform="matrix(0.970105,0,0,0.970105,-4.22879,28.7548)">
            <circle cx="561" cy="527" r="374" style="fill:white;"/>
        </g>
        <g transform="matrix(0.879482,0,0,0.879482,46.6103,76.5127)">
            <circle cx="561" cy="527" r="374" style="fill:rgb(49,49,49);"/>
        </g>
        <g transform="matrix(0.447169,0,0,0.447169,289.138,304.342)">
            <circle cx="561" cy="527" r="374" style="fill:white;"/>
        </g>
        <g transform="matrix(1.48165,0,0,1.26151,-262.314,-68.6764)">
            <rect x="534" y="183" width="15" height="599" style="fill:rgb(49,49,49);"/>
        </g>
        <g transform="matrix(9.07249e-17,1.48165,-1.26151,7.72449e-17,1148.68,-262.314)">
            <rect x="534" y="183" width="15" height="599" style="fill:rgb(49,49,49);"/>
        </g>
    </g>
</svg>
