<svg width="16" height="16" viewBox="0 0 16 16" fill="none" xmlns="http://www.w3.org/2000/svg">
<path d="M8.00009 6L6.50009 1H9.50009L8.00009 6ZM14.4001 2.46997L12.4601 1.46997L11.4001 5.96997L14.4001 2.46997ZM4.6001 6L3.5401 1.5L1.6001 2.5L4.6001 6Z" fill="white"/>
<path fill-rule="evenodd" clip-rule="evenodd" d="M13.4201 11C12.9501 9.66 11.9401 7.31995 10.9501 7.31995C9.48006 7.31995 9.48006 8.67004 8.88006 8.67004H7.07006C6.47006 8.67004 6.52006 7.31995 5.07006 7.31995C4.07006 7.31995 3.07004 9.66 2.61004 11C1.77004 13.5 1.68006 14.7 3.48006 14.7C5.48006 14.7 5.48005 12.41 8.03005 12.41C10.5801 12.41 10.6201 14.7 12.5301 14.7C14.4401 14.7 14.3101 13.52 13.4201 11ZM7.00005 11H6.00005V12H5.00005V11H4.00005V10H5.00005V9H6.00005V10H7.00005V11ZM10.5001 12.25C10.0359 12.25 9.59081 12.0656 9.26262 11.7374C8.93444 11.4092 8.75005 10.9641 8.75005 10.5C8.75005 10.0359 8.93444 9.59076 9.26262 9.26257C9.59081 8.93438 10.0359 8.75 10.5001 8.75C10.9642 8.75 11.4093 8.93438 11.7375 9.26257C12.0657 9.59076 12.2501 10.0359 12.2501 10.5C12.2501 10.9641 12.0657 11.4092 11.7375 11.7374C11.4093 12.0656 10.9642 12.25 10.5001 12.25Z" fill="white"/>
<path fill-rule="evenodd" clip-rule="evenodd" d="M10.5 10C10.3674 10 10.2402 10.0527 10.1465 10.1465C10.0527 10.2403 10 10.3674 10 10.5C10 10.6326 10.0527 10.7597 10.1465 10.8535C10.2402 10.9473 10.3674 11 10.5 11C10.6326 11 10.7598 10.9473 10.8535 10.8535C10.9473 10.7597 11 10.6326 11 10.5C11 10.3674 10.9473 10.2403 10.8535 10.1465C10.7598 10.0527 10.6326 10 10.5 10Z" fill="white"/>
</svg>
