<svg width="64" height="64" viewBox="0 0 64 64" fill="none" xmlns="http://www.w3.org/2000/svg">
<path opacity="0.3" fill-rule="evenodd" clip-rule="evenodd" d="M49 42.5C47.5 38.4 44.3 31 41.3 31C36.6 31 36.6 32.3 34.8 32.3C33.9 32.3 30.4 32.3 29.2 32.3C27.4 32.3 27.4 31 22.7 31C19.8 31 16.5 38.4 15 42.5C12.3 50.5 12.1 54 17.7 54C23.9 54 23.9 48.8 31.9 48.8C39.9 48.8 40.2 54 46.1 54C51.7 54 51.7 50.5 49 42.5ZM28.5 41.7H25.8C25.5 41.7 25.3 41.9 25.3 42.2V44.6C25.3 44.9 25.1 45.1 24.8 45.1H23.4C23.1 45.1 22.9 44.9 22.9 44.6V42.2C22.9 41.9 22.7 41.7 22.4 41.7H20C19.7 41.7 19.5 41.5 19.5 41.2V39.8C19.5 39.5 19.7 39.3 20 39.3H22.4C22.7 39.3 22.9 39.1 22.9 38.8V36.1C22.9 35.8 23.1 35.6 23.4 35.6H24.8C25.1 35.6 25.3 35.8 25.3 36.1V38.8C25.3 39.1 25.5 39.3 25.8 39.3H28.5C28.8 39.3 29 39.5 29 39.8V41.2C29 41.5 28.7 41.7 28.5 41.7ZM43.6 45.6C39.3 47.9 35 44.6 35.5 40.4C35.8 37.6 38.1 35.3 41 35.4C44.1 35.5 46.9 38.3 46.3 41.9C46 43.6 45 44.9 43.6 45.6Z" fill="black" stroke="black" stroke-width="4" stroke-miterlimit="10"/>
<path d="M41.9001 45.5C45.3001 45.5 48 42.8001 48 39.4001C48 36.0001 45.3001 33.3 41.9001 33.3C38.5001 33.3 35.8 36.0001 35.8 39.4001C35.8 42.8001 38.5001 45.5 41.9001 45.5Z" fill="#7F7F7F"/>
<path fill-rule="evenodd" clip-rule="evenodd" d="M50.9 41.2C49.3 36.6 45.6 28.4 42.4 28.4C37.1 28.4 37.1 29.8 35.2 29.8C34.2 29.8 30.3 29.8 29 29.8C27 29.8 27 28.4 21.8 28.4C18.5 28.4 14.9 36.6 13.3 41.2C10.3 50.1 9.99998 54 16.3 54C23.2 54 23.2 48.2 32.1 48.2C41 48.2 41.1 54 47.7 54C53.9 54 53.9 50.1 50.9 41.2ZM28.1 40.3H25.1C24.8 40.3 24.5 40.6 24.5 40.9V43.6C24.5 43.9 24.2 44.2 23.9 44.2H22.3C22 44.2 21.7 43.9 21.7 43.6V40.9C21.7 40.6 21.4 40.3 21.1 40.3H18.4C18.1 40.3 17.8 40 17.8 39.7V38.1C17.8 37.8 18.1 37.5 18.4 37.5H21.1C21.4 37.5 21.7 37.2 21.7 36.9V33.9C21.7 33.6 22 33.3 22.3 33.3H24C24.3 33.3 24.6 33.6 24.6 33.9V36.9C24.6 37.2 24.9 37.5 25.2 37.5H28.2C28.5 37.5 28.8 37.8 28.8 38.1V39.7C28.6 40.1 28.4 40.3 28.1 40.3ZM44.9 44.7C40.1 47.2 35.3 43.6 35.8 38.9C36.1 35.8 38.7 33.2 41.9 33.3C45.4 33.4 48.5 36.5 47.9 40.6C47.6 42.4 46.5 43.9 44.9 44.7Z" fill="url(#paint0_linear_10421_29483)"/>
<path d="M41.9 38.2C42.7 38.2 43.4 37.5 43.4 36.7C43.4 35.9 42.7 35.2 41.9 35.2C41.1 35.2 40.4 35.9 40.4 36.7C40.4 37.5 41.1 38.2 41.9 38.2Z" fill="white" stroke="#BFBFBF" stroke-width="0.25" stroke-miterlimit="10"/>
<path d="M44.8 41.1C45.6 41.1 46.3 40.4 46.3 39.6C46.3 38.8 45.6 38.1 44.8 38.1C44 38.1 43.3 38.8 43.3 39.6C43.3 40.4 44 41.1 44.8 41.1Z" fill="white" stroke="#BFBFBF" stroke-width="0.25" stroke-miterlimit="10"/>
<path d="M39 41.1C39.8 41.1 40.5 40.4 40.5 39.6C40.5 38.8 39.8 38.1 39 38.1C38.2 38.1 37.5 38.8 37.5 39.6C37.5 40.4 38.2 41.1 39 41.1Z" fill="white" stroke="#BFBFBF" stroke-width="0.25" stroke-miterlimit="10"/>
<path d="M41.9 43.7C42.7 43.7 43.4 43 43.4 42.2C43.4 41.4 42.7 40.7 41.9 40.7C41.1 40.7 40.4 41.4 40.4 42.2C40.4 43 41.1 43.7 41.9 43.7Z" fill="white" stroke="#BFBFBF" stroke-width="0.25" stroke-miterlimit="10"/>
<path fill-rule="evenodd" clip-rule="evenodd" d="M28.1 40.3H25.1C24.8 40.3 24.5 40.6001 24.5 40.9001V43.6C24.5 43.9 24.2 44.2001 23.9 44.2001H22.3C22 44.2001 21.7001 43.9 21.7001 43.6V40.9001C21.7001 40.6001 21.4 40.3 21.1 40.3H18.4C18.1 40.3 17.8 40.0001 17.8 39.7001V38.1C17.8 37.8 18.1 37.5 18.4 37.5H21.1C21.4 37.5 21.7001 37.2001 21.7001 36.9001V33.9C21.7001 33.6 22 33.3 22.3 33.3H24C24.3 33.3 24.6 33.6 24.6 33.9V36.9001C24.6 37.2001 24.9001 37.5 25.2001 37.5H28.2001C28.5001 37.5 28.8 37.8 28.8 38.1V39.7001C28.6 40.1001 28.4001 40.3 28.1 40.3Z" fill="#E5E5E5" stroke="#BFBFBF" stroke-width="0.25" stroke-miterlimit="10"/>
<path d="M37.5 7.19995H26.5L32 25.6L37.5 7.19995Z" fill="url(#paint1_linear_10421_29483)"/>
<path d="M55.6 12.6L48.5 9L44.5 25.6L55.6 12.6Z" fill="url(#paint2_linear_10421_29483)"/>
<path d="M8.40002 12.6L15.5 9L19.5 25.6L8.40002 12.6Z" fill="url(#paint3_linear_10421_29483)"/>
<defs>
<linearGradient id="paint0_linear_10421_29483" x1="32.1444" y1="28.6896" x2="31.9936" y2="61.413" gradientUnits="userSpaceOnUse">
<stop stop-color="#BFBFBF"/>
<stop offset="1" stop-color="#545454"/>
</linearGradient>
<linearGradient id="paint1_linear_10421_29483" x1="32" y1="7.18745" x2="32" y2="25.625" gradientUnits="userSpaceOnUse">
<stop stop-color="#E5E5E5"/>
<stop offset="1" stop-color="#7F7F7F"/>
</linearGradient>
<linearGradient id="paint2_linear_10421_29483" x1="50.0687" y1="9.0312" x2="50.0687" y2="25.625" gradientUnits="userSpaceOnUse">
<stop stop-color="#E5E5E5"/>
<stop offset="1" stop-color="#7F7F7F"/>
</linearGradient>
<linearGradient id="paint3_linear_10421_29483" x1="13.9312" y1="9.0312" x2="13.9312" y2="25.625" gradientUnits="userSpaceOnUse">
<stop stop-color="#E5E5E5"/>
<stop offset="1" stop-color="#7F7F7F"/>
</linearGradient>
</defs>
</svg>
